# xmcd
#
# Track frame offsets:
#	150
#	11163
#	24106
#	36583
#	49179
#	61544
#	74329
#	85479
#	98379
#	111997
#	124408
#	135347
#	148499
#	162093
#	176149
#	188051
#	198730
#	213108
#	230878
#	241634
#	252322
#	266295
#	276496
#	286834
#	297466
#	310914
#
# Disc length: 4326 seconds
# Revision: 2
# Processed by: cddbd v1.5.2PL0 Copyright (c) Steve Scherf et al.
# Submitted via: dBpowerAMP V12.0
#
DISCID=8810e41a
DTITLE=Various Artist - Carnival Northern Soul
DYEAR=2009
DGENRE=Northern Soul
TTITLE0=The Lovettes - Little Miss Soul
TTITLE1=The Metrics - Wishes
TTITLE2=The Pretenders - I Wanna Be (Your Everything)
TTITLE3=The Topics - Hey Girl (Where Are You Going)
TTITLE4=Phil Terrell - Love Has Passed Me By
TTITLE5=Lee Williams and The Cymbals - Lost Love
TTITLE6=The Manhattans - There Goes A Fool
TTITLE7=The Lovettes - I Need A Guy
TTITLE8=Barbara Brown and George Smith - So In Love
TTITLE9=Norma Jenkins - Me, Myself And I
TTITLE10=Phil Terrell - I'll Erase You (From My Heart)
TTITLE11=The Turner Brothers - My Love Is Yours Tonight
TTITLE12=The Manhattans - All I Need Is Your Love
TTITLE13=Curby Goggins - Leave Me If You Want To
TTITLE14=The Topics - She's So Fine
TTITLE15=The Pets - I Say Yeah
TTITLE16=Lee Williams - It's Everything About You (That I Love)
TTITLE17=The Pretenders - I Call It Love
TTITLE18=Phil Terrell - I'm Just A Young Boy
TTITLE19=Vick and John - Why Did She Lie
TTITLE20=Jimmy Jules - Don't Let Yourself Go
TTITLE21=Kenneth Ruffin - Cry, Cry, Cry
TTITLE22=Little Royal - You Made Me Love You
TTITLE23=Leon and The Metronomes - I'll Catch You On The Rebound
TTITLE24=Harry Caldwell - Please Come Back
TTITLE25=The Pretenders - A Broken Heart Cries
EXTD=
EXTT0=
EXTT1=
EXTT2=
EXTT3=
EXTT4=
EXTT5=
EXTT6=
EXTT7=
EXTT8=
EXTT9=
EXTT10=
EXTT11=
EXTT12=
EXTT13=
EXTT14=
EXTT15=
EXTT16=
EXTT17=
EXTT18=
EXTT19=
EXTT20=
EXTT21=
EXTT22=
EXTT23=
EXTT24=
EXTT25=
PLAYORDER=
